<svg version="1.1" id="Layer_1" xmlns="http://www.w3.org/2000/svg" xmlns:xlink="http://www.w3.org/1999/xlink" x="0px" y="0px" viewBox="0 0 512 512">
	<g>
		<path d="M394.667,53.333h-64l-9.536-19.072c-7.232-14.464-22.016-23.595-38.165-23.595h-53.931
			c-16.171,0-30.933,9.131-38.165,23.595l-9.536,19.072h-64C93.76,53.333,74.667,72.427,74.667,96v21.333h362.667V96
			C437.333,72.427,418.24,53.333,394.667,53.333z"/>
	</g>
	<g>
		<path d="M394.667,42.667h-57.408l-6.613-13.184C321.557,11.285,303.275,0,282.944,0h-53.909
			c-20.331,0-38.592,11.285-47.701,29.483l-6.592,13.184h-57.408C87.915,42.667,64,66.603,64,96v21.333
			C64,123.221,68.779,128,74.667,128h362.667c5.888,0,10.667-4.779,10.667-10.667V96C448,66.603,424.085,42.667,394.667,42.667z
			 M426.667,106.667H85.333V96c0-17.643,14.357-32,32-32h64c4.032,0,7.723-2.283,9.536-5.888l9.557-19.093
			c5.44-10.901,16.405-17.685,28.629-17.685h53.909c12.203,0,23.168,6.784,28.629,17.685l9.536,19.093
			c1.813,3.605,5.504,5.888,9.536,5.888h64c17.643,0,32,14.357,32,32V106.667z"/>
	</g>
	<g>
		<path d="M416,149.333H96c-5.888,0-10.667,4.779-10.667,10.667v277.333C85.333,478.507,118.827,512,160,512h192
			c41.173,0,74.667-33.493,74.667-74.667V160C426.667,154.112,421.888,149.333,416,149.333z M170.667,437.333
			c0,5.888-4.779,10.667-10.667,10.667s-10.667-4.779-10.667-10.667v-256c0-5.888,4.779-10.667,10.667-10.667
			s10.667,4.779,10.667,10.667V437.333z M234.667,437.333c0,5.888-4.779,10.667-10.667,10.667s-10.667-4.779-10.667-10.667v-256
			c0-5.888,4.779-10.667,10.667-10.667s10.667,4.779,10.667,10.667V437.333z M298.667,437.333c0,5.888-4.779,10.667-10.667,10.667
			s-10.667-4.779-10.667-10.667v-256c0-5.888,4.779-10.667,10.667-10.667s10.667,4.779,10.667,10.667V437.333z M362.667,437.333
			c0,5.888-4.779,10.667-10.667,10.667c-5.888,0-10.667-4.779-10.667-10.667v-256c0-5.888,4.779-10.667,10.667-10.667
			c5.888,0,10.667,4.779,10.667,10.667V437.333z"/>
	</g>
</svg>
